<svg xmlns="http://www.w3.org/2000/svg"  viewBox="0 0 40 40" width="16px" height="16px"><path fill="#8bb7f0" d="M38.5,20c0,10.218-8.282,18.5-18.5,18.5S1.5,30.218,1.5,20S9.782,1.5,20,1.5S38.5,9.782,38.5,20z"/><path fill="#4e7ab5" d="M20,39C9.523,39,1,30.477,1,20S9.523,1,20,1s19,8.523,19,19S30.477,39,20,39z M20,2 C10.075,2,2,10.075,2,20s8.075,18,18,18s18-8.075,18-18S29.925,2,20,2z"/><g><path fill="#fff" d="M20,4.429c-8.601,0-15.571,6.97-15.571,15.571S11.399,35.571,20,35.571S35.571,28.601,35.571,20 S28.601,4.429,20,4.429z M20,6.261c1.377,0,2.701,0.208,3.957,0.587L20,16.42l-3.957-9.573C17.299,6.469,18.623,6.261,20,6.261z M6.261,20c0-1.141,0.157-2.247,0.422-3.31l7.302,15.642C9.42,30.097,6.261,25.417,6.261,20z M20,33.739 c-1.753,0-3.424-0.343-4.966-0.945L20,23.179l4.966,9.615C23.424,33.395,21.753,33.739,20,33.739z M22.061,19.441l-4.311-0.004 l-2.902,6.459l-6.243-13.56c1.07-1.589,2.472-2.93,4.093-3.954l5.052,11.055L22.061,19.441l5.241-11.059 c1.621,1.023,3.023,2.365,4.093,3.954l-6.243,13.56L22.061,19.441z M26.014,32.333l7.302-15.642 c0.265,1.063,0.422,2.168,0.422,3.31C33.739,25.417,30.58,30.097,26.014,32.333z"/><path fill="#4e7ab5" d="M20,36.071c-8.861,0-16.071-7.209-16.071-16.071S11.139,3.929,20,3.929S36.071,11.139,36.071,20 S28.861,36.071,20,36.071z M20,4.929C11.69,4.929,4.929,11.69,4.929,20S11.69,35.071,20,35.071S35.071,28.31,35.071,20 S28.31,4.929,20,4.929z M20,34.239c-1.699,0-3.382-0.311-5.003-0.923l0.042,0.09l-1.272-0.623C8.829,30.363,5.761,25.466,5.761,20 c0-1.113,0.147-2.267,0.437-3.431l0.341-1.37l8.08,17.308L20,22.089l5.381,10.418l8.08-17.308l0.341,1.37 c0.29,1.164,0.437,2.318,0.437,3.431c0,5.466-3.067,10.363-8.005,12.782l-1.272,0.623l0.042-0.09 C23.382,33.928,21.699,34.239,20,34.239z M15.738,32.52c2.775,0.954,5.748,0.954,8.523,0L20,24.268L15.738,32.52z M33.119,18.295 l-5.996,12.843c3.807-2.424,6.115-6.568,6.115-11.139C33.239,19.442,33.199,18.873,33.119,18.295z M6.881,18.295 c-0.08,0.577-0.12,1.147-0.12,1.705c0,4.571,2.309,8.715,6.115,11.139L6.881,18.295z M14.853,27.104L8.033,12.29l0.157-0.233 c1.104-1.639,2.531-3.018,4.241-4.097l0.483-0.305l5.157,11.283l3.674,0.003l5.347-11.282l0.477,0.301 c1.71,1.079,3.138,2.458,4.241,4.097l0.157,0.233l-6.806,14.783l-3.415-7.132l-3.673-0.003L14.853,27.104z M22.615,19.44 l2.528,5.28l5.679-12.334c-0.896-1.272-2.009-2.369-3.314-3.269L22.615,19.44z M9.178,12.386l5.665,12.303l2.359-5.25L12.486,9.122 C11.183,10.021,10.073,11.116,9.178,12.386z M20,17.729L15.37,6.528l0.528-0.159c2.674-0.807,5.529-0.807,8.203,0l0.528,0.159 L20,17.729z M16.72,7.177L20,15.111l3.28-7.934C21.129,6.625,18.871,6.625,16.72,7.177z"/></g></svg>